<svg id="Layer_1" enable-background="new 0 0 64 64" viewBox="0 0 64 64" xmlns="http://www.w3.org/2000/svg"><g><path d="m63.61 41.42-.32-.31c-.54-.54-1.56-.76-2.28-.5l-9.97 3.68c-.4-.53-.82-1-1.22-1.4l-12.12-12.85c.33-.14.63-.33.9-.57l21.06-18.24c1.43-1.25 1.51-3.36.17-4.71l-.4-.39c-1.34-1.35-3.89-1.87-5.65-1.17l-17.05 6.79-4.15-4.15c-1.61-1.61-4.23-1.61-5.84 0-1.61 1.6-1.61 4.22 0 5.84l1.63 1.63-3.26 1.3c-.08.03-.15.07-.23.11l-8.11-8.6c-2.34-2.35-13.87-9.94-16.3-7.51s5.16 13.96 7.51 16.31l8.55 8.2c-.02.05-.05.09-.06.14l-1.3 3.26-1.63-1.63c-1.61-1.61-4.23-1.61-5.84 0-1.61 1.62-1.61 4.23 0 5.84l4.15 4.15-6.78 17.04c-.7 1.77-.19 4.31 1.17 5.66l.38.39c1.35 1.35 3.47 1.27 4.72-.17l18.23-21.06c.19-.21.34-.45.47-.7l12.7 12.17c.4.4.88.81 1.43 1.21l-3.66 9.94c-.26.71-.03 1.74.5 2.28l.32.31c.54.54 1.39.52 1.9-.05l9.61-10.74 10.74-9.61c.54-.49.57-1.35.03-1.89z" fill="rgb(0,0,0)"/></g></svg>