<?xml version="1.0" encoding="UTF-8"?>
<svg version="1.1" xmlns="http://www.w3.org/2000/svg" width="252" height="170" viewBox="0 0 252 170">


















<path d="M0 0 C6.12445621 4.00434787 12.07072613 8.19083727 17.9375 12.5625 C24.32213515 17.29573016 30.73264859 21.98799103 37.1875 26.625 C43.79083208 31.36973993 50.32200423 36.20065704 56.7878418 41.13134766 C60.09180645 43.63636543 63.38566032 45.94843195 67 48 C66.46515599 53.34844008 64.53309233 57.35796103 62 62 C57.28613478 59.42450472 53.04696133 56.64222692 48.875 53.25 C47.65874661 52.27845064 46.44121204 51.30850378 45.22265625 50.33984375 C44.55766113 49.81116699 43.89266602 49.28249023 43.20751953 48.73779297 C39.85536098 46.09892275 36.46821519 43.50684255 33.07568359 40.92016602 C31.23174512 39.51367009 29.39221759 38.10137268 27.55712891 36.68334961 C22.22132801 32.54608077 22.22132801 32.54608077 16.52734375 28.9375 C6.82642687 23.26157676 3.31449704 12.31480421 0 2 C0 1.34 0 0.68 0 0 Z " fill="#070707" transform="translate(57,35)"/>
<path d="M0 0 C1 2 1 2 0.50268555 3.72412109 C0.07403198 4.73853271 0.07403198 4.73853271 -0.36328125 5.7734375 C-0.67330078 6.5159375 -0.98332031 7.2584375 -1.30273438 8.0234375 C-1.63595703 8.79945312 -1.96917969 9.57546875 -2.3125 10.375 C-2.63412109 11.14328125 -2.95574219 11.9115625 -3.28710938 12.703125 C-4.17485621 14.81038443 -5.06761616 16.91209773 -6 19 C-6.43445435 20.02335449 -6.43445435 20.02335449 -6.87768555 21.06738281 C-8.20904138 23.35996771 -9.56193102 24.42930596 -11.71875 25.9609375 C-12.47728271 26.50790283 -13.23581543 27.05486816 -14.01733398 27.6184082 C-14.83661377 28.1980835 -15.65589355 28.77775879 -16.5 29.375 C-18.23198593 30.62420124 -19.96241652 31.87556132 -21.69140625 33.12890625 C-22.5745752 33.76844238 -23.45774414 34.40797852 -24.36767578 35.06689453 C-28.45440124 38.06807169 -32.4483677 41.18338248 -36.4375 44.3125 C-41.56173803 48.32050133 -46.6852668 52.32693013 -51.875 56.25 C-52.77992188 56.93578125 -53.68484375 57.6215625 -54.6171875 58.328125 C-56.6958755 59.78661429 -58.69463836 60.949184 -61 62 C-61.86883706 60.42466914 -62.71959068 58.83935491 -63.5625 57.25 C-64.03816406 56.36828125 -64.51382813 55.4865625 -65.00390625 54.578125 C-66.1340398 51.65307346 -66.10484407 50.86078762 -65 48 C-63.44042969 46.40356445 -63.44042969 46.40356445 -61.421875 44.86328125 C-60.6798584 44.29077637 -59.9378418 43.71827148 -59.17333984 43.12841797 C-58.3736377 42.52916504 -57.57393555 41.92991211 -56.75 41.3125 C-55.93096191 40.68746582 -55.11192383 40.06243164 -54.26806641 39.41845703 C-48.70773192 35.2033121 -43.0444965 31.18488505 -37.26953125 27.26953125 C-32.76639502 24.14369833 -28.40900819 20.83723425 -24.03759766 17.53100586 C-18.39318364 13.27072289 -12.6619813 9.14457877 -6.890625 5.05859375 C-4.56707105 3.40384654 -2.27118768 1.72544113 0 0 Z " fill="#060606" transform="translate(194,35)"/>











<path d="M0 0 C6.65750379 4.15382715 12.83986109 8.88131791 19.04101562 13.67407227 C25.57937095 18.71560105 32.22780831 23.59817645 38.93115234 28.41796875 C39.69508301 28.97355469 40.45901367 29.52914062 41.24609375 30.1015625 C42.26207642 30.83366943 42.26207642 30.83366943 43.29858398 31.58056641 C45 33 45 33 47 36 C26.52333311 37.6681312 26.52333311 37.6681312 19.5625 31.8125 C18.01298739 30.23601803 16.48776807 28.63487947 15 27 C13.8700009 26.14531848 12.7266787 25.3075063 11.5625 24.5 C8.06574574 21.08853243 6.77751527 17.48153463 5 13 C4.09112691 11.01724228 3.17435705 9.03808663 2.25 7.0625 C0 2.2439759 0 2.2439759 0 0 Z " fill="#0B0B0B" transform="translate(70,64)"/>
<path d="M0 0 C1 2 1 2 0.54125977 3.85668945 C-4.86716598 18.21752806 -11.36172509 26.37889104 -24 35 C-24.33 35.33 -24.66 35.66 -25 36 C-26.63472882 36.08700342 -28.27314055 36.10701063 -29.91015625 36.09765625 C-30.89951172 36.09443359 -31.88886719 36.09121094 -32.90820312 36.08789062 C-33.94912109 36.07951172 -34.99003906 36.07113281 -36.0625 36.0625 C-37.10728516 36.05798828 -38.15207031 36.05347656 -39.22851562 36.04882812 C-41.8190666 36.03699913 -44.40950559 36.02051689 -47 36 C-43.30599253 31.96304754 -38.97463619 28.94034154 -34.5625 25.75 C-26.21237591 19.66082252 -17.96918442 13.44315542 -9.76782227 7.15527344 C-8.92662842 6.51106445 -8.08543457 5.86685547 -7.21875 5.203125 C-6.47560547 4.63239258 -5.73246094 4.06166016 -4.96679688 3.47363281 C-3.34996393 2.2622123 -1.68100694 1.12067129 0 0 Z " fill="#090909" transform="translate(181,64)"/>



























<path d="M0 0 C1.84743341 2.77115011 3.57769378 5.5578512 5.25 8.4375 C5.81203125 9.38496094 6.3740625 10.33242188 6.953125 11.30859375 C8 14 8 14 7.30126953 15.98413086 C5.83386432 18.25737005 4.44434977 19.40707597 2.2265625 20.9453125 C1.1128125 21.72455078 1.1128125 21.72455078 -0.0234375 22.51953125 C-0.79945313 23.04933594 -1.57546875 23.57914063 -2.375 24.125 C-3.14328125 24.66253906 -3.9115625 25.20007813 -4.703125 25.75390625 C-8.05686482 28.08063578 -11.30832758 30.24132398 -15 32 C-13.27032246 25.92553723 -10.35035402 20.47995972 -7.5 14.875 C-7.00113281 13.88628906 -6.50226563 12.89757812 -5.98828125 11.87890625 C-5.06238155 10.04448298 -4.13483553 8.21088902 -3.20507812 6.37841797 C-2.12958871 4.25576443 -1.06195343 2.1294507 0 0 Z " fill="#090909" transform="translate(187,16)"/>

<path d="M0 0 C3.63356348 4.59351077 6.02260741 9.71577216 8.625 14.9375 C9.37910156 16.4215332 9.37910156 16.4215332 10.1484375 17.93554688 C10.62796875 18.89396484 11.1075 19.85238281 11.6015625 20.83984375 C12.03807129 21.70988037 12.47458008 22.57991699 12.92431641 23.47631836 C13.99653024 25.99185954 14.56702616 28.30704767 15 31 C10.43283084 28.82725664 6.44308672 25.95976725 2.3125 23.0625 C1.52810547 22.52431641 0.74371094 21.98613281 -0.06445312 21.43164062 C-0.81017578 20.90892578 -1.55589844 20.38621094 -2.32421875 19.84765625 C-3.00572998 19.37336182 -3.68724121 18.89906738 -4.3894043 18.41040039 C-6 17 -6 17 -7 14 C-5.93650501 11.5107842 -4.83016927 9.19266245 -3.5625 6.8125 C-3.22412109 6.15830078 -2.88574219 5.50410156 -2.53710938 4.83007812 C-1.70030902 3.21540701 -0.85130254 1.60707237 0 0 Z " fill="#070707" transform="translate(64,16)"/>


<path d="M0 0 C3.34708051 1.54841575 6.24667512 3.49105864 9.25 5.625 C10.14203125 6.25664063 11.0340625 6.88828125 11.953125 7.5390625 C12.96632812 8.26222656 12.96632812 8.26222656 14 9 C11.62431666 11.42766766 9.26284031 13.74826757 6.5625 15.8125 C5.72912109 16.47185547 5.72912109 16.47185547 4.87890625 17.14453125 C2.17897942 18.37381187 0.79463626 17.92038919 -2 17 C-4.67578125 15.37109375 -4.67578125 15.37109375 -7.3125 13.4375 C-8.19550781 12.79683594 -9.07851562 12.15617188 -9.98828125 11.49609375 C-10.65214844 11.00238281 -11.31601563 10.50867188 -12 10 C-8.29909479 6.0747975 -4.45040344 3.05419844 0 0 Z " fill="#070707" transform="translate(125,121)"/>









<path d="M0 0 C4.47395674 0.78490469 5.93038535 1.95599171 8.5625 5.625 C9.1875 8.625 9.1875 8.625 8.5625 11.625 C6.10655875 14.94774404 4.6368356 16.40118008 0.5625 17.25 C-3.5118356 16.40118008 -4.98155875 14.94774404 -7.4375 11.625 C-8.15338388 7.80695263 -7.72805839 6.15962745 -5.875 2.75 C-3.4375 0.625 -3.4375 0.625 0 0 Z " fill="#050505" transform="translate(125.4375,99.375)"/>





<path d="M0 0 C3.2826932 1.49076434 5.93077441 3.38620321 8.75 5.625 C9.94882813 6.57246094 9.94882813 6.57246094 11.171875 7.5390625 C11.77515625 8.02117187 12.3784375 8.50328125 13 9 C10.44399403 11.63034171 7.85357572 14.02501737 4.9375 16.25 C4.26589844 16.77078125 3.59429687 17.2915625 2.90234375 17.828125 C1 19 1 19 -2 19 C-2.67220351 17.06441401 -3.33758077 15.12645628 -4 13.1875 C-4.37125 12.10855469 -4.7425 11.02960938 -5.125 9.91796875 C-6 7 -6 7 -6 4 C-3 1.8125 -3 1.8125 0 0 Z " fill="#070707" transform="translate(145,107)"/>


<path d="M0 0 C3.88815311 1.26102263 6.06485489 2.3281862 8 6 C7.41796875 9.015625 7.41796875 9.015625 6.1875 12.25 C5.78917969 13.32765625 5.39085938 14.4053125 4.98046875 15.515625 C4.65691406 16.33546875 4.33335938 17.1553125 4 18 C-0.81502319 18 -1.99268419 16.86271681 -5.75 14 C-6.73484375 13.2575 -7.7196875 12.515 -8.734375 11.75 C-9.85585937 10.88375 -9.85585937 10.88375 -11 10 C-7.50640535 6.40365256 -3.88901869 3.16548033 0 0 Z " fill="#070707" transform="translate(105,107)"/>






























<path d="M0 0 C2.9375 1 2.9375 1 4.8125 2.6875 C6.28760192 5.71965394 6.43348753 7.66979801 5.9375 11 C3.82060295 13.35210784 2.49708485 13.91810953 -0.625 14.375 C-3.0625 14 -3.0625 14 -4.8125 12.9375 C-6.73922002 9.95108396 -7.00067728 7.52389484 -7.0625 4 C-4.96553791 0.64486065 -3.97499364 0 0 0 Z " fill="#121212" transform="translate(156.0625,144)"/>


























<path d="M0 0 C6.28813559 -0.3559322 6.28813559 -0.3559322 9 1 C10.41906866 3.83813733 9.81640992 6.00917215 9.2265625 9.0625 C8.83597568 11.21504642 8.83597568 11.21504642 10 14 C8.68 14 7.36 14 6 14 C5.67 12.35 5.34 10.7 5 9 C4.01 9 3.02 9 2 9 C2 10.32 2 11.64 2 13 C1.01 12.67 0.02 12.34 -1 12 C-0.67 8.04 -0.34 4.08 0 0 Z " fill="#0F0F0F" transform="translate(119,152)"/>
<path d="M0 0 C0.845625 0.144375 1.69125 0.28875 2.5625 0.4375 C4.1875 2.875 4.1875 2.875 5.5625 5.4375 C6.5525 5.7675 7.5425 6.0975 8.5625 6.4375 C8.2325 7.4275 7.9025 8.4175 7.5625 9.4375 C4.5925 8.9425 4.5925 8.9425 1.5625 8.4375 C2.2225 10.0875 2.8825 11.7375 3.5625 13.4375 C0.5625 13.4375 0.5625 13.4375 -1.26171875 11.90625 C-1.87660156 11.2565625 -2.49148437 10.606875 -3.125 9.9375 C-3.74761719 9.2878125 -4.37023437 8.638125 -5.01171875 7.96875 C-5.48222656 7.4634375 -5.95273438 6.958125 -6.4375 6.4375 C-3.74720149 0.67257463 -3.74720149 0.67257463 0 0 Z " fill="#353535" transform="translate(166.4375,135.5625)"/>









<path d="M0 0 C0 4.29 0 8.58 0 13 C-0.99 13.33 -1.98 13.66 -3 14 C-3 12.68 -3 11.36 -3 10 C-5.97 10 -8.94 10 -12 10 C-10.42414212 6.84828424 -9.46841281 5.15412299 -7.125 2.75 C-6.63257812 2.22921875 -6.14015625 1.7084375 -5.6328125 1.171875 C-4 0 -4 0 0 0 Z " fill="#0D0D0D" transform="translate(106,148)"/>











<path d="M0 0 C0 0.99 0 1.98 0 3 C-3.37097383 4.49821059 -5.20442119 5 -9 5 C-9 6.65 -9 8.3 -9 10 C-7.9275 9.67 -6.855 9.34 -5.75 9 C-2 8 -2 8 2 8 C2 8.99 2 9.98 2 11 C-2.17737474 12.59138085 -5.53160785 13.21278058 -10 13 C-11.6442143 10.48531931 -12.00041345 8.97974074 -12.0625 5.9375 C-11 3 -11 3 -7.6875 1.125 C-4 0 -4 0 0 0 Z " fill="#181818" transform="translate(75,111)"/>


<path d="M0 0 C2.625 0.25 2.625 0.25 4.5 1.4375 C5.625 3.25 5.625 3.25 5.3125 5.9375 C5.085625 6.700625 4.85875 7.46375 4.625 8.25 C2.625 7.25 2.625 7.25 1.625 4.25 C0.965 3.92 0.305 3.59 -0.375 3.25 C-0.045 6.22 0.285 9.19 0.625 12.25 C-1.025 12.58 -2.675 12.91 -4.375 13.25 C-6.4375 11 -6.4375 11 -8.375 8.25 C-8.125 5.9375 -8.125 5.9375 -7.375 4.25 C-6.715 4.25 -6.055 4.25 -5.375 4.25 C-5.045 6.23 -4.715 8.21 -4.375 10.25 C-3.715 9.59 -3.055 8.93 -2.375 8.25 C-2.66230055 5.91055264 -2.99436779 3.5760857 -3.375 1.25 C-2.375 0.25 -2.375 0.25 0 0 Z " fill="#121212" transform="translate(81.375,130.75)"/>









<path d="M0 0 C0.78375 0.04125 1.5675 0.0825 2.375 0.125 C2.045 1.115 1.715 2.105 1.375 3.125 C0.385 3.455 -0.605 3.785 -1.625 4.125 C-1.625 5.445 -1.625 6.765 -1.625 8.125 C0.025 8.455 1.675 8.785 3.375 9.125 C4.035 7.145 4.695 5.165 5.375 3.125 C6.035 3.455 6.695 3.785 7.375 4.125 C7.73164336 9.47465035 7.73164336 9.47465035 6.3125 12.0625 C3.15637095 13.79328045 0.76195279 12.9717382 -2.625 12.125 C-4.625 11 -4.625 11 -5.625 9.125 C-5.15766332 0.24560302 -5.15766332 0.24560302 0 0 Z " fill="#101010" transform="translate(175.625,123.875)"/>




<path d="M0 0 C0.99 0.33 1.98 0.66 3 1 C2.67 2.65 2.34 4.3 2 6 C2.66 6 3.32 6 4 6 C4.33 4.68 4.66 3.36 5 2 C5.99 2.33 6.98 2.66 8 3 C7.34 4.65 6.68 6.3 6 8 C6.99 7.67 7.98 7.34 9 7 C9.73323796 4.98491642 9.73323796 4.98491642 10 3 C10.99 3 11.98 3 13 3 C12.34 5.97 11.68 8.94 11 12 C1.89285714 10.125 1.89285714 10.125 -2 8 C-1.34 5.36 -0.68 2.72 0 0 Z " fill="#111111" transform="translate(177,112)"/>



























<path d="M0 0 C2.33294775 -0.04241723 4.66702567 -0.04092937 7 0 C8 1 8 1 8.125 4.5 C8 8 8 8 7 9 C4.66702567 9.04092937 2.33294775 9.04241723 0 9 C0 6.03 0 3.06 0 0 Z " fill="#6B6B6D" transform="translate(123,184)"/>


<path d="M0 0 C-0.33 0.99 -0.66 1.98 -1 3 C-1.99 3.33 -2.98 3.66 -4 4 C-4.33 4.66 -4.66 5.32 -5 6 C-3.02 6 -1.04 6 1 6 C1 6.66 1 7.32 1 8 C-0.65 8.33 -2.3 8.66 -4 9 C-3.67 10.98 -3.34 12.96 -3 15 C-3.99 15 -4.98 15 -6 15 C-6.50512244 13.39743892 -7.00391627 11.79288208 -7.5 10.1875 C-7.7784375 9.29417969 -8.056875 8.40085938 -8.34375 7.48046875 C-9 5 -9 5 -9 2 C-2.25 0 -2.25 0 0 0 Z " fill="#131313" transform="translate(146,149)"/>











<path d="M0 0 C2.875 -0.125 2.875 -0.125 6 0 C8 2 8 2 8.25 4.5 C8 7 8 7 6 9 C2.875 9.125 2.875 9.125 0 9 C0 6.03 0 3.06 0 0 Z " fill="#666769" transform="translate(79,184)"/>







































































<path d="M0 0 C1.32 0.33 2.64 0.66 4 1 C4.25 3.29296875 4.25 3.29296875 4 6 C2.25 7.80078125 2.25 7.80078125 0 9.3125 C-0.7425 9.82425781 -1.485 10.33601563 -2.25 10.86328125 C-2.8275 11.23839844 -3.405 11.61351562 -4 12 C-4 8.76344816 -3.3449153 7.21247361 -2 4.3125 C-1.62875 3.50425781 -1.2575 2.69601563 -0.875 1.86328125 C-0.58625 1.24839844 -0.2975 0.63351563 0 0 Z " fill="#0A0A0A" transform="translate(177,36)"/>













<path d="M0 0 C0.99 0.33 1.98 0.66 3 1 C3.25 3.8125 3.25 3.8125 3 7 C0.7793949 9.467339 -0.43569203 9.96152446 -3.75 10.1875 C-4.4925 10.125625 -5.235 10.06375 -6 10 C-6 8.68 -6 7.36 -6 6 C-4.35 6 -2.7 6 -1 6 C-0.67 4.02 -0.34 2.04 0 0 Z " fill="#121212" transform="translate(159,148)"/>





<path d="M0 0 C5.41139241 -0.36075949 5.41139241 -0.36075949 7.9375 1.1875 C9 3 9 3 8.6875 5.6875 C8.460625 6.450625 8.23375 7.21375 8 8 C5.03 7.505 5.03 7.505 2 7 C2.04125 6.21625 2.0825 5.4325 2.125 4.625 C2.28728734 1.83883881 2.28728734 1.83883881 0 0 Z " fill="#535353" transform="translate(120,152)"/>




















<path d="M0 0 C0.99 0 1.98 0 3 0 C2.68991116 1.60463449 2.37683713 3.20869231 2.0625 4.8125 C1.88847656 5.70582031 1.71445313 6.59914062 1.53515625 7.51953125 C1 10 1 10 0 13 C-0.99 13 -1.98 13 -3 13 C-2.69128878 11.20767663 -2.37790936 9.41615679 -2.0625 7.625 C-1.88847656 6.62726563 -1.71445313 5.62953125 -1.53515625 4.6015625 C-1 2 -1 2 0 0 Z " fill="#141414" transform="translate(113,151)"/>







<path d="M0 0 C2.96052484 3.36423277 3.92289822 6.69159287 5 11 C1.56404834 9.47291037 -1.11912454 7.40072955 -4 5 C-2.68 4.34 -1.36 3.68 0 3 C0 2.01 0 1.02 0 0 Z " fill="#131313" transform="translate(74,36)"/>



<path d="M0 0 C-0.33 0.66 -0.66 1.32 -1 2 C-1.556875 3.175625 -2.11375 4.35125 -2.6875 5.5625 C-4.40829789 8.62310731 -4.66056153 8.90208506 -8.25 9.9375 C-9.1575 9.958125 -10.065 9.97875 -11 10 C-9.15919405 5.21390453 -5.3291986 0 0 0 Z " fill="#080808" transform="translate(105,148)"/>






<path d="M0 0 C0.94875 0.04125 1.8975 0.0825 2.875 0.125 C2.545 0.785 2.215 1.445 1.875 2.125 C0.555 2.125 -0.765 2.125 -2.125 2.125 C-2.125 4.105 -2.125 6.085 -2.125 8.125 C-1.135 8.125 -0.145 8.125 0.875 8.125 C0.875 7.135 0.875 6.145 0.875 5.125 C1.535 5.125 2.195 5.125 2.875 5.125 C2.545 6.775 2.215 8.425 1.875 10.125 C-2.875 9.375 -2.875 9.375 -5.125 7.125 C-5.375 4.625 -5.375 4.625 -5.125 2.125 C-3.125 0.125 -3.125 0.125 0 0 Z " fill="#68696B" transform="translate(173.125,183.875)"/>
















<path d="M0 0 C0 0.99 0 1.98 0 3 C-3.82320557 4.42258812 -6.91281305 5.24042276 -11 5 C-11.33 4.01 -11.66 3.02 -12 2 C-10.7625 1.67 -9.525 1.34 -8.25 1 C-7.55390625 0.814375 -6.8578125 0.62875 -6.140625 0.4375 C-4 0 -4 0 0 0 Z " fill="#0E0E0E" transform="translate(77,119)"/>









<path d="M0 0 C1.65 0 3.3 0 5 0 C4.67 0.66 4.34 1.32 4 2 C3.01 1.67 2.02 1.34 1 1 C1 1.66 1 2.32 1 3 C2.32 3.66 3.64 4.32 5 5 C4.67 6.32 4.34 7.64 4 9 C2.68 9.33 1.36 9.66 0 10 C0 9.01 0 8.02 0 7 C0.99 7.33 1.98 7.66 3 8 C2.319375 7.4225 1.63875 6.845 0.9375 6.25 C0.298125 5.5075 -0.34125 4.765 -1 4 C-0.75 1.75 -0.75 1.75 0 0 Z " fill="#67686A" transform="translate(43,184)"/>



<path d="M0 0 C0.78375 0.04125 1.5675 0.0825 2.375 0.125 C2.045 1.115 1.715 2.105 1.375 3.125 C0.385 3.455 -0.605 3.785 -1.625 4.125 C-2.84369929 6.62947516 -2.84369929 6.62947516 -3.625 9.125 C-4.285 9.125 -4.945 9.125 -5.625 9.125 C-4.6356383 0.22074468 -4.6356383 0.22074468 0 0 Z " fill="#141414" transform="translate(175.625,123.875)"/>









































































































































<path d="M0 0 C0.99 0 1.98 0 3 0 C5 2 5 2 6 5 C6.65129797 6.34090759 7.31513275 7.67592331 8 9 C7.01 9 6.02 9 5 9 C5 8.01 5 7.02 5 6 C4.34 6 3.68 6 3 6 C2.01 4.02 1.02 2.04 0 0 Z " fill="#606163" transform="translate(88,184)"/>










<path d="M0 0 C0.66 0 1.32 0 2 0 C1.814375 0.61875 1.62875 1.2375 1.4375 1.875 C0.76313824 4.04160178 0.76313824 4.04160178 2 6 C1.34 6.66 0.68 7.32 0 8 C-0.99 7.01 -1.98 6.02 -3 5 C-1.125 1.125 -1.125 1.125 0 0 Z " fill="#030303" transform="translate(163,137)"/>













<path d="M0 0 C0.36923077 4.55384615 0.36923077 4.55384615 -1.5 6.8125 C-1.995 7.204375 -2.49 7.59625 -3 8 C-3.99 7.67 -4.98 7.34 -6 7 C-2.72340426 0 -2.72340426 0 0 0 Z " fill="#606060" transform="translate(106,148)"/>





<path d="M0 0 C2.0625 0.4375 2.0625 0.4375 4 1 C4.625 2.875 4.625 2.875 5 5 C4.34 5.66 3.68 6.32 3 7 C2.71125 6.38125 2.4225 5.7625 2.125 5.125 C1.06279958 2.86674235 1.06279958 2.86674235 -1 1 C-0.67 0.67 -0.34 0.34 0 0 Z " fill="#202020" transform="translate(82,132)"/>













<path d="M0 0 C0.33 0.66 0.66 1.32 1 2 C0.3125 4.0625 0.3125 4.0625 -1 6 C-3 6.875 -3 6.875 -5 7 C-5.66 6.34 -6.32 5.68 -7 5 C-4.69 3.35 -2.38 1.7 0 0 Z " fill="#171717" transform="translate(181,64)"/>
















<path d="M0 0 C1.65 0 3.3 0 5 0 C4.34 0.66 3.68 1.32 3 2 C2.3574765 4.06874034 2.3574765 4.06874034 2 6 C1.01 5.67 0.02 5.34 -1 5 C-0.67 3.35 -0.34 1.7 0 0 Z " fill="#070707" transform="translate(79,131)"/>























<path d="M0 0 C2.475 0.99 2.475 0.99 5 2 C4.67 2.99 4.34 3.98 4 5 C1.03 4.505 1.03 4.505 -2 4 C-1.34 2.68 -0.68 1.36 0 0 Z " fill="#151515" transform="translate(170,140)"/>




































































































<path d="M0 0 C2.875 0.3125 2.875 0.3125 6 1 C6.66 1.99 7.32 2.98 8 4 C7.34 4 6.68 4 6 4 C5.67 4.66 5.34 5.32 5 6 C4.731875 5.195625 4.46375 4.39125 4.1875 3.5625 C3.795625 2.716875 3.40375 1.87125 3 1 C2.01 0.67 1.02 0.34 0 0 Z " fill="#1C1C1C" transform="translate(153,144)"/>

<path d="M0 0 C1.98 0.66 3.96 1.32 6 2 C5.67 2.66 5.34 3.32 5 4 C3.35 3.67 1.7 3.34 0 3 C0 2.01 0 1.02 0 0 Z " fill="#070707" transform="translate(172,132)"/>

<path d="M0 0 C0.66 0 1.32 0 2 0 C1.67 0.99 1.34 1.98 1 3 C0.34 2.34 -0.32 1.68 -1 1 C-0.67 0.67 -0.34 0.34 0 0 Z M-3 2 C-2.34 2.33 -1.68 2.66 -1 3 C-2.375 4.5 -2.375 4.5 -4 6 C-4.66 6 -5.32 6 -6 6 C-6.33 6.66 -6.66 7.32 -7 8 C-7 7.01 -7 6.02 -7 5 C-5 3.3125 -5 3.3125 -3 2 Z " fill="#1B1B1B" transform="translate(125,121)"/>










<path d="M0 0 C0.66 0.99 1.32 1.98 2 3 C1.1875 4.9375 1.1875 4.9375 0 7 C-0.99 7.33 -1.98 7.66 -3 8 C-1.125 2.25 -1.125 2.25 0 0 Z " fill="#171717" transform="translate(175,40)"/>








</svg>
