<?xml version="1.0" encoding="UTF-8"?>
<svg version="1.1" xmlns="http://www.w3.org/2000/svg" width="195" height="195">
<!-- white background square removed 2026-06-01 (transparent symbol) -->
<path d="M0 0 C5.56890517 0.47986031 10.67067568 1.29915181 16 3 C16 4.32 16 5.64 16 7 C14.390625 8.59765625 14.390625 8.59765625 12.25 10.0625 C11.55390625 10.54847656 10.8578125 11.03445312 10.140625 11.53515625 C9.08101562 12.26025391 9.08101562 12.26025391 8 13 C6.66225133 13.99408565 5.32757052 14.99236202 4 16 C3.67 15.01 3.34 14.02 3 13 C-0.89817238 16.24847699 -1.74785257 19.16625971 -3 24 C1.43864621 23.97726514 5.8746961 23.90004393 10.3125 23.8125 C11.57513672 23.80669922 12.83777344 23.80089844 14.13867188 23.79492188 C15.34716797 23.76591797 16.55566406 23.73691406 17.80078125 23.70703125 C18.91622314 23.6913208 20.03166504 23.67561035 21.1809082 23.65942383 C24.21405015 23.27180154 24.21405015 23.27180154 25.82495117 20.51831055 C26.21271729 19.68726807 26.6004834 18.85622559 27 18 C28.57922406 16.42077594 30.19443874 16.792341 32.375 16.75 C33.16648438 16.72421875 33.95796875 16.6984375 34.7734375 16.671875 C37 17 37 17 38.7890625 18.265625 C40 20 40 20 40 24 C43.40056109 23.92981956 46.67724948 23.75565778 50 23 C52.15602694 20.66250834 52.15602694 20.66250834 53 18 C54.57897833 16.42102167 56.19362572 16.75456491 58.375 16.6875 C62.69124799 16.72867248 62.69124799 16.72867248 65.0625 18.8125 C66 21 66 21 66 24 C71.28 24 76.56 24 82 24 C81.97679687 22.57945312 81.95359375 21.15890625 81.9296875 19.6953125 C81.91093229 17.83854691 81.89273183 15.98177565 81.875 14.125 C81.85824219 13.18785156 81.84148437 12.25070313 81.82421875 11.28515625 C81.81777344 10.38925781 81.81132812 9.49335937 81.8046875 8.5703125 C81.79421387 7.74289551 81.78374023 6.91547852 81.77294922 6.06298828 C82 4 82 4 84 2 C88.55555556 2.55555556 88.55555556 2.55555556 90 4 C90.08669432 5.4887186 90.10703494 6.981445 90.09765625 8.47265625 C90.09282227 9.82133789 90.09282227 9.82133789 90.08789062 11.19726562 C90.07532227 12.61555664 90.07532227 12.61555664 90.0625 14.0625 C90.05798828 15.01189453 90.05347656 15.96128906 90.04882812 16.93945312 C90.0370011 19.29303065 90.02052025 21.64648477 90 24 C91.04800781 23.90460938 92.09601563 23.80921875 93.17578125 23.7109375 C94.55464022 23.59837758 95.93354929 23.48643036 97.3125 23.375 C98.00279297 23.31054688 98.69308594 23.24609375 99.40429688 23.1796875 C103.2559972 22.88197153 104.68854416 22.79236277 108 25 C108.4375 27.9375 108.4375 27.9375 108 31 C106.42578125 32.7421875 106.42578125 32.7421875 104 34 C100.546875 33.85546875 100.546875 33.85546875 96.75 33.1875 C95.48671875 32.97480469 94.2234375 32.76210937 92.921875 32.54296875 C91.95765625 32.36378906 90.9934375 32.18460938 90 32 C90.00523682 32.63091553 90.01047363 33.26183105 90.01586914 33.91186523 C90.03657826 36.75373347 90.04964066 39.59558588 90.0625 42.4375 C90.07087891 43.43072266 90.07925781 44.42394531 90.08789062 45.44726562 C90.09111328 46.39150391 90.09433594 47.33574219 90.09765625 48.30859375 C90.10289307 49.18314209 90.10812988 50.05769043 90.11352539 50.95874023 C90 53 90 53 89 54 C86.66055264 53.71269945 84.3260857 53.38063221 82 53 C80.80179805 48.85268821 81.11097705 45.00466698 81.4375 40.75 C81.7159375 36.91375 81.7159375 36.91375 82 33 C74.08 33.495 74.08 33.495 66 34 C66.639375 35.381875 67.27875 36.76375 67.9375 38.1875 C69.39334032 41.44899386 70.53941284 44.43044951 71 48 C64.73758521 45.09245028 62.43342078 42.38058944 59.734375 36.05859375 C59 34 59 34 59 32 C57.68 32 56.36 32 55 32 C55.34933594 32.56847656 55.69867188 33.13695312 56.05859375 33.72265625 C60.13331026 40.6369769 61.76550753 45.95713237 60 54 C55.02932442 49.16013167 52.83329259 46.22589656 51.875 39.3125 C51.70742187 38.13300781 51.53984375 36.95351562 51.3671875 35.73828125 C51.24601562 34.83464844 51.12484375 33.93101562 51 33 C49.515 32.505 49.515 32.505 48 32 C48.33386719 32.68320313 48.66773437 33.36640625 49.01171875 34.0703125 C51.19969421 40.55640576 50.13336 49.11033487 47.4375 55.375 C46.963125 56.24125 46.48875 57.1075 46 58 C44 57 44 57 43.1484375 54.99609375 C40.80271266 47.23624642 40.39268725 41.03656373 42 33 C41.01 33 40.02 33 39 33 C39.00902344 33.845625 39.01804688 34.69125 39.02734375 35.5625 C38.83074709 43.08445924 37.99310338 47.34087061 32.59375 52.70703125 C31 54 31 54 30 54 C29.65345328 47.64664345 30.69855674 42.90516661 33 37 C33.5878125 35.4840625 33.5878125 35.4840625 34.1875 33.9375 C34.455625 33.298125 34.72375 32.65875 35 32 C34.01 32 33.02 32 32 32 C31.7525 32.86625 31.505 33.7325 31.25 34.625 C29.24303324 40.04381024 26.21469877 44.08635114 22 48 C21.01 47.505 21.01 47.505 20 47 C20.64219502 45.01964979 21.28885644 43.04074744 21.9375 41.0625 C22.29714844 39.96035156 22.65679687 38.85820312 23.02734375 37.72265625 C24 35 24 35 25 34 C11.14 33.505 11.14 33.505 -3 33 C-1.52120243 38.5087652 -1.52120243 38.5087652 2 42 C3.32 42 4.64 42 6 42 C7.51824201 43.19521179 9.03333443 44.39833643 10.47265625 45.6875 C12.48725371 47.41871419 14.68657226 48.70720214 17 50 C16.5 51.875 16.5 51.875 15 54 C9.88541926 55.73375618 5.42999847 56.32579991 0 56 C-0.66 55.67 -1.32 55.34 -2 55 C-1.67 53.68 -1.34 52.36 -1 51 C-1.70125 50.54625 -2.4025 50.0925 -3.125 49.625 C-8.79979257 44.44366765 -12.36814848 37.16448468 -15 30 C-15 23.04446447 -10.11565324 15.40179487 -6 10 C-5.113125 9.154375 -4.22625 8.30875 -3.3125 7.4375 C-0.84829596 4.84009574 -0.300442 3.50515671 0 0 Z " fill="#0B0B0B" transform="translate(52,111)"/>
<path d="M0 0 C0.43879669 2.99844405 0.49894994 5.16841676 -1.08984375 7.81640625 C-4.54160236 12.05556868 -8.13253059 14.56626529 -13 17 C-12.34 17.33 -11.68 17.66 -11 18 C-8.29620134 17.00409891 -8.29620134 17.00409891 -5.375 15.5625 C-4.37210938 15.08941406 -3.36921875 14.61632813 -2.3359375 14.12890625 C-1.17964844 13.57009766 -1.17964844 13.57009766 0 13 C-0.38752209 18.42530925 -2.07707075 21.25142316 -6 25 C-9.3125 25.875 -9.3125 25.875 -12 26 C-11.505 26.99 -11.505 26.99 -11 28 C-8.36 28 -5.72 28 -3 28 C-6.07585569 34.52081406 -6.07585569 34.52081406 -10.375 36.75 C-11.57125 37.1625 -12.7675 37.575 -14 38 C-16.0072458 38.98537521 -18.00980253 39.98063057 -20 41 C-17.03 41 -14.06 41 -11 41 C-12.90065702 44.80131405 -14.04369152 46.32343888 -17.7265625 48.3125 C-23.22864561 49.97636018 -29.63997128 48.78667624 -35 47 C-36.29045314 49.48164066 -37.30417527 51.85169075 -38.25 54.5 C-40.28257553 58.56515106 -41.98686738 59.95248336 -46 62 C-47.32 62 -48.64 62 -50 62 C-50 57.38 -50 52.76 -50 48 C-48.02 47.01 -46.04 46.02 -44 45 C-43.505 44.505 -43.505 44.505 -43 44 C-43.36965611 40.30343885 -44.00504021 36.98403935 -45.125 33.4375 C-46.60481349 27.62394699 -45.08039719 23.18162365 -42.359375 18.015625 C-39.86005338 14.30973432 -36.5134808 11.70721562 -33 9 C-32.3503125 8.47792969 -31.700625 7.95585938 -31.03125 7.41796875 C-29.1875 6 -29.1875 6 -26 4 C-23 5 -23 5 -21.3125 8.0625 C-20.879375 9.031875 -20.44625 10.00125 -20 11 C-13.86935087 8.77067304 -8.83681441 5.33552357 -3.4765625 1.64453125 C-1 0 -1 0 0 0 Z " fill="#EDEDED" transform="translate(171,38)"/>
<path d="M0 0 C4.26192197 0.55363202 7.21135809 3.13339602 10.5 5.6875 C11.06847656 6.10966797 11.63695312 6.53183594 12.22265625 6.96679688 C17.30016812 10.87212213 21.3109676 15.70451561 23 22 C22.75353013 25.45057818 22.32184963 28.26163908 20.9375 31.4375 C19.61345854 35.05654665 19.86976441 38.15804997 20 42 C22.31 42.66 24.62 43.32 27 44 C27 48.62 27 53.24 27 58 C19.67480577 56.65704772 19.67480577 56.65704772 16.625 53.6875 C15.09355536 51.15472617 14.0364239 48.76379707 13 46 C11.59240659 43.23558031 11.59240659 43.23558031 10 41 C9.34 41 8.68 41 8 41 C8 41.99 8 42.98 8 44 C2.28354968 45.06132625 -2.43143702 45.91557292 -7.5625 42.75 C-10.12117249 40.94137496 -11.20741298 39.68888053 -13 37 C-9.535 36.505 -9.535 36.505 -6 36 C-6 35.67 -6 35.34 -6 35 C-6.59167969 34.85304687 -7.18335937 34.70609375 -7.79296875 34.5546875 C-13.71455731 32.87384507 -16.5929231 31.16556821 -20 26 C-20 25.34 -20 24.68 -20 24 C-16.04 24.33 -12.08 24.66 -8 25 C-8.83144531 24.62488281 -9.66289063 24.24976562 -10.51953125 23.86328125 C-12.14955078 23.09564453 -12.14955078 23.09564453 -13.8125 22.3125 C-14.89144531 21.81363281 -15.97039063 21.31476562 -17.08203125 20.80078125 C-21.12579542 18.30523201 -22.57452202 15.74059175 -23.6875 11.1875 C-23.790625 10.465625 -23.89375 9.74375 -24 9 C-18.34254599 11.38853268 -12.75412484 13.90709097 -7.1875 16.5 C-6.32962891 16.89058594 -5.47175781 17.28117187 -4.58789062 17.68359375 C-3.3590918 18.25787109 -3.3590918 18.25787109 -2.10546875 18.84375 C-0.99401489 19.35711914 -0.99401489 19.35711914 0.13989258 19.88085938 C2 21 2 21 4 24 C4.33 22.68 4.66 21.36 5 20 C4.05125 19.278125 3.1025 18.55625 2.125 17.8125 C-0.68018803 15.45163253 -2.19253372 13.67845749 -3 10 C-2.69136965 6.21927824 -1.89435556 3.28354963 0 0 Z " fill="#050505" transform="translate(47,42)"/>
<path d="M0 0 C1.54426938 0.0050265 3.08854034 0.00958736 4.6328125 0.01367188 C8.38024187 0.02458303 12.12761049 0.04178386 15.875 0.0625 C15.56730293 1.87582154 15.25370936 3.68814345 14.9375 5.5 C14.76347656 6.50933594 14.58945313 7.51867187 14.41015625 8.55859375 C13.875 11.0625 13.875 11.0625 12.875 12.0625 C10.22036879 12.51709858 7.55310862 12.76493238 4.875 13.0625 C4.90118408 13.86469971 4.92736816 14.66689941 4.9543457 15.4934082 C5.05813941 19.12040705 5.12327304 22.74709403 5.1875 26.375 C5.22939453 27.63763672 5.27128906 28.90027344 5.31445312 30.20117188 C5.33056641 31.40966797 5.34667969 32.61816406 5.36328125 33.86328125 C5.38946533 34.97872314 5.41564941 36.09416504 5.44262695 37.2434082 C4.875 40.0625 4.875 40.0625 2.53198242 41.94995117 C-0.125 43.0625 -0.125 43.0625 -3.125 43.0625 C-3.455 44.3825 -3.785 45.7025 -4.125 47.0625 C-8 46.1875 -8 46.1875 -9.125 45.0625 C-9.28306531 43.13771187 -9.376135 41.2075079 -9.44140625 39.27734375 C-9.48330078 38.10751953 -9.52519531 36.93769531 -9.56835938 35.73242188 C-9.60767578 34.50072266 -9.64699219 33.26902344 -9.6875 32 C-9.73068359 30.76443359 -9.77386719 29.52886719 -9.81835938 28.25585938 C-9.92484111 25.19155159 -10.02546065 22.12704115 -10.125 19.0625 C-10.455 26.9825 -10.785 34.9025 -11.125 43.0625 C-13.125 42.0625 -15.125 41.0625 -17.125 40.0625 C-17.125 31.1525 -17.125 22.2425 -17.125 13.0625 C-18.115 13.0625 -19.105 13.0625 -20.125 13.0625 C-20.125 20.9825 -20.125 28.9025 -20.125 37.0625 C-25.125 34.0625 -25.125 34.0625 -26.125 33.0625 C-26.28471977 30.68911361 -26.3842433 28.34131728 -26.44140625 25.96484375 C-26.46218735 25.25598526 -26.48296844 24.54712677 -26.50437927 23.81678772 C-26.56994598 21.54462695 -26.6287923 19.27234736 -26.6875 17 C-26.73067849 15.46287817 -26.77429255 13.9257685 -26.81835938 12.38867188 C-26.92563449 8.6134041 -27.02688137 4.8380164 -27.125 1.0625 C-18.07605002 -0.07986247 -9.10047064 -0.0518406 0 0 Z " fill="#B7B7B7" transform="translate(103.125,83.9375)"/>
<path d="M0 0 C1.39025391 -0.05994141 1.39025391 -0.05994141 2.80859375 -0.12109375 C6.7795466 0.68436194 8.10316951 2.24825018 10.5625 5.4375 C11.75053634 8.20362613 12.48185499 11.01553336 13.1875 13.9375 C13.37828125 14.66453125 13.5690625 15.3915625 13.765625 16.140625 C15.50628643 22.87118251 16.99960495 29.6649548 18.5625 36.4375 C7.0125 36.4375 -4.5375 36.4375 -16.4375 36.4375 C-14.4575 29.5075 -12.4775 22.5775 -10.4375 15.4375 C-12.4175 15.4375 -14.3975 15.4375 -16.4375 15.4375 C-17.1875 13.1875 -17.1875 13.1875 -17.4375 10.4375 C-15.625 8.125 -15.625 8.125 -13.4375 6.4375 C-12.7775 6.4375 -12.1175 6.4375 -11.4375 6.4375 C-11.19 5.81875 -10.9425 5.2 -10.6875 4.5625 C-8.24652005 0.41283408 -4.54363673 0.10713152 0 0 Z " fill="#030303" transform="translate(96.4375,45.5625)"/>
<path d="M0 0 C3 1 3 1 4.25 2.5625 C5.37639625 6.22328781 5.15634585 9.40612966 4 13 C2.55674568 15.07877824 0.9680851 16.97591889 -0.6484375 18.921875 C-2.57832619 21.88921831 -2.57560974 24.49184407 -2.71875 27.95703125 C-3.14137321 31.02691928 -5.00000724 32.73334154 -7 35 C-6.67 35.99 -6.34 36.98 -6 38 C-6.63671875 39.76171875 -6.63671875 39.76171875 -7.6875 41.6875 C-8.84271476 43.82839288 -9.97022243 45.93223459 -10.94921875 48.16015625 C-13.08730376 52.98663506 -15.10808682 55.55404341 -20 58 C-21.32 58 -22.64 58 -24 58 C-24 53.38 -24 48.76 -24 44 C-22.02 43.01 -20.04 42.02 -18 41 C-17.505 40.505 -17.505 40.505 -17 40 C-17.36965611 36.30343885 -18.00504021 32.98403935 -19.125 29.4375 C-20.60481349 23.62394699 -19.08039719 19.18162365 -16.359375 14.015625 C-13.86005338 10.30973432 -10.5134808 7.70721562 -7 5 C-6.3503125 4.47792969 -5.700625 3.95585938 -5.03125 3.41796875 C-3.1875 2 -3.1875 2 0 0 Z " fill="#060606" transform="translate(145,42)"/>
<path d="M0 0 C1.54426938 0.0050265 3.08854034 0.00958736 4.6328125 0.01367188 C8.38024187 0.02458303 12.12761049 0.04178386 15.875 0.0625 C15.56730293 1.87582154 15.25370936 3.68814345 14.9375 5.5 C14.76347656 6.50933594 14.58945313 7.51867187 14.41015625 8.55859375 C13.875 11.0625 13.875 11.0625 12.875 12.0625 C10.235 12.3925 7.595 12.7225 4.875 13.0625 C4.875 21.9725 4.875 30.8825 4.875 40.0625 C3.555 40.7225 2.235 41.3825 0.875 42.0625 C0.875 32.4925 0.875 22.9225 0.875 13.0625 C-3.085 13.0625 -7.045 13.0625 -11.125 13.0625 C-13.50190096 12.95189174 -15.87807706 12.81440417 -18.25 12.625 C-19.32507813 12.54378906 -20.40015625 12.46257812 -21.5078125 12.37890625 C-24.125 12.0625 -24.125 12.0625 -26.125 11.0625 C-26.72422957 7.75543113 -26.87063256 4.41167133 -27.125 1.0625 C-18.07605002 -0.07986247 -9.10047064 -0.0518406 0 0 Z " fill="#030303" transform="translate(103.125,83.9375)"/>
<path d="M0 0 C5.65745401 2.38853268 11.24587516 4.90709097 16.8125 7.5 C18.09930664 8.08587891 18.09930664 8.08587891 19.41210938 8.68359375 C20.23130859 9.06644531 21.05050781 9.44929688 21.89453125 9.84375 C22.63550049 10.18599609 23.37646973 10.52824219 24.13989258 10.88085938 C28.0574692 13.23788408 29.23942378 17.80426829 30.90234375 21.84375 C32.01778076 24.03492876 33.27601274 25.28592072 35 27 C34.8125 29.125 34.8125 29.125 34 31 C33.01 31.495 33.01 31.495 32 32 C32 32.99 32 33.98 32 35 C26.28354968 36.06132625 21.56856298 36.91557292 16.4375 33.75 C13.87882751 31.94137496 12.79258702 30.68888053 11 28 C14.465 27.505 14.465 27.505 18 27 C18 26.67 18 26.34 18 26 C17.40832031 25.85304688 16.81664063 25.70609375 16.20703125 25.5546875 C10.28544269 23.87384507 7.4070769 22.16556821 4 17 C4 16.34 4 15.68 4 15 C7.96 15.33 11.92 15.66 16 16 C15.16855469 15.62488281 14.33710937 15.24976562 13.48046875 14.86328125 C12.39378906 14.35152344 11.30710937 13.83976562 10.1875 13.3125 C9.10855469 12.81363281 8.02960937 12.31476562 6.91796875 11.80078125 C2.87420458 9.30523201 1.42547798 6.74059175 0.3125 2.1875 C0.209375 1.465625 0.10625 0.74375 0 0 Z " fill="#E7E7E7" transform="translate(23,51)"/>
<path d="M0 0 C2.046875 0.5234375 2.046875 0.5234375 4 2 C5.13703713 4.68621369 6.01709109 7.15479251 6.8125 9.9375 C7.15571289 11.03094727 7.15571289 11.03094727 7.50585938 12.14648438 C9.13706187 17.5888144 9.13706187 17.5888144 8 21 C7.01 20.01 6.02 19.02 5 18 C3.02 18.99 3.02 18.99 1 20 C0.34 19.34 -0.32 18.68 -1 18 C-2.98 18.99 -2.98 18.99 -5 20 C-5.66 19.34 -6.32 18.68 -7 18 C-8.32 18.99 -9.64 19.98 -11 21 C-10.34 17.7 -9.68 14.4 -9 11 C-7.68 11 -6.36 11 -5 11 C-5.33 9.35 -5.66 7.7 -6 6 C-5.01 5.34 -4.02 4.68 -3 4 C-5.31 3.67 -7.62 3.34 -10 3 C-7.29121075 -0.82417306 -4.40070559 -0.38602681 0 0 Z " fill="#F4F4F4" transform="translate(99,49)"/>
<path d="M0 0 C4.0369816 1.80548423 7.52991488 4.3324965 11.125 6.875 C11.75792969 7.30941406 12.39085937 7.74382813 13.04296875 8.19140625 C19.35737603 12.65573242 19.35737603 12.65573242 20 16 C18.625 18.75 18.625 18.75 17 21 C3.1675996 13.54329931 3.1675996 13.54329931 0 8 C-0.37185571 5.1932535 -0.24577877 2.85103378 0 0 Z " fill="#090909" transform="translate(25,25)"/>
<path d="M0 0 C0.39431496 3.22023883 0.6298304 5.86280622 -0.984375 8.77734375 C-5.08086917 13.85193343 -10.41350245 17.6943207 -16 21 C-16.66 21 -17.32 21 -18 21 C-18.99 18.69 -19.98 16.38 -21 14 C-18.39682213 12.04034952 -15.79228758 10.08251018 -13.1875 8.125 C-12.44951172 7.56941406 -11.71152344 7.01382813 -10.95117188 6.44140625 C-10.23896484 5.90644531 -9.52675781 5.37148438 -8.79296875 4.8203125 C-8.1383667 4.32805176 -7.48376465 3.83579102 -6.80932617 3.32861328 C-2.27636898 0 -2.27636898 0 0 0 Z " fill="#0A0A0A" transform="translate(170,25)"/>
<path d="M0 0 C5.72615348 2.40078891 11.33343554 5.01544797 16.9375 7.6875 C17.81212891 8.10322266 18.68675781 8.51894531 19.58789062 8.94726562 C21.72582646 9.96366135 23.86317849 10.9812642 26 12 C26 13.65 26 15.3 26 17 C6.94684457 14.2470726 6.94684457 14.2470726 2 8 C1.05806283 5.36559819 0.58542947 2.7470152 0 0 Z " fill="#0C0C0C" transform="translate(23,51)"/>
<path d="M0 0 C0.60546875 1.80859375 0.60546875 1.80859375 1 4 C-1.91801184 9.29565111 -4.64330778 12.17777016 -10.34765625 14.16796875 C-11.57355469 14.50441406 -12.79945313 14.84085938 -14.0625 15.1875 C-15.29097656 15.53167969 -16.51945313 15.87585938 -17.78515625 16.23046875 C-21 17 -21 17 -24 17 C-24 15.35 -24 13.7 -24 12 C-16 8 -8 4 0 0 Z " fill="#090909" transform="translate(170,51)"/>
<path d="M0 0 C1.65 0 3.3 0 5 0 C5 10.56 5 21.12 5 32 C3.02 32.495 3.02 32.495 1 33 C0 32 0 32 -0.11352539 28.94897461 C-0.11336634 27.60008729 -0.10767612 26.25119386 -0.09765625 24.90234375 C-0.0962413 24.19348526 -0.09482635 23.48462677 -0.09336853 22.75428772 C-0.08775443 20.48198288 -0.07519963 18.20977525 -0.0625 15.9375 C-0.05748681 14.40039204 -0.05292359 12.86328255 -0.04882812 11.32617188 C-0.03778042 7.55074358 -0.02050641 3.77538829 0 0 Z " fill="#020202" transform="translate(95,98)"/>
<path d="M0 0 C-0.99 0.495 -0.99 0.495 -2 1 C-2.33 1.99 -2.66 2.98 -3 4 C-0.03 4.495 -0.03 4.495 3 5 C2.01 6.485 2.01 6.485 1 8 C0.34 8 -0.32 8 -1 8 C-0.67 9.65 -0.34 11.3 0 13 C-1.32 13 -2.64 13 -4 13 C-4.33 13.99 -4.66 14.98 -5 16 C-5.99 16 -6.98 16 -8 16 C-8 15.34 -8 14.68 -8 14 C-9.98 14 -11.96 14 -14 14 C-14.75 11.75 -14.75 11.75 -15 9 C-13.1875 6.6875 -13.1875 6.6875 -11 5 C-10.34 5 -9.68 5 -9 5 C-8.7525 4.38125 -8.505 3.7625 -8.25 3.125 C-6.05756043 -0.60214727 -4.06146667 -1.35382222 0 0 Z " fill="#272727" transform="translate(94,47)"/>
<path d="M0 0 C2.89705376 0.61972282 5.79255455 1.24556699 8.6875 1.875 C9.91243164 2.13603516 9.91243164 2.13603516 11.16210938 2.40234375 C19.77053824 4.28434844 19.77053824 4.28434844 23 6 C24.3125 9.125 24.3125 9.125 25 12 C6.5229682 9.94699647 6.5229682 9.94699647 2 5 C1.295551 3.34894766 0.6232671 1.68337766 0 0 Z " fill="#0A0A0A" transform="translate(27,66)"/>
<path d="M0 0 C-1.48478768 3.21703997 -2.32927276 4.7446119 -5 7 C-11.45722991 9.33159082 -18.11050063 11 -25 11 C-24.5 8.1875 -24.5 8.1875 -23 5 C-20.20039353 3.60019677 -17.98184537 2.78862577 -15 2 C-13.98035156 1.70996094 -12.96070313 1.41992188 -11.91015625 1.12109375 C-3.47602912 -1.15867637 -3.47602912 -1.15867637 0 0 Z " fill="#0C0C0C" transform="translate(168,67)"/>
<path d="M0 0 C1.65 0 3.3 0 5 0 C5 9.57 5 19.14 5 29 C2.525 28.01 2.525 28.01 0 27 C0 18.09 0 9.18 0 0 Z " fill="#010101" transform="translate(86,97)"/>
<path d="M0 0 C4.28102717 1.52089123 7.9832223 3.68619032 11.75 6.1875 C12.63365234 6.72987305 12.63365234 6.72987305 13.53515625 7.28320312 C16.9687481 9.57621102 17.93398439 10.71827549 18.890625 14.80078125 C18.94476563 16.38439453 18.94476563 16.38439453 19 18 C12.20477434 16.08339789 4.82522521 13.21892442 1 7 C0.3125 3.25 0.3125 3.25 0 0 Z " fill="#060606" transform="translate(23,38)"/>
<path d="M0 0 C0.42132896 2.87908126 0.45067522 5.10465857 -0.87890625 7.74609375 C-5.41936851 13.83166854 -12.14477364 16.2233282 -19 19 C-18.15970794 13.95824764 -17.44398712 11.10117003 -13.28515625 7.9296875 C-12.22167969 7.25164063 -11.15820312 6.57359375 -10.0625 5.875 C-9.00160156 5.19179688 -7.94070312 4.50859375 -6.84765625 3.8046875 C-5.43806641 2.91136719 -5.43806641 2.91136719 -4 2 C-1 0 -1 0 0 0 Z " fill="#0A0A0A" transform="translate(171,38)"/>
<path d="M0 0 C0.99 0 1.98 0 3 0 C3.23074219 0.51949219 3.46148437 1.03898437 3.69921875 1.57421875 C5.90241929 6.28541042 8.1116979 9.54373147 12 13 C10.25 16.875 10.25 16.875 8 18 C8 16.35 8 14.7 8 13 C7.17242187 12.74476562 6.34484375 12.48953125 5.4921875 12.2265625 C1.56559849 10.84742497 -2.12257463 9.16394698 -5.875 7.375 C-6.56335937 7.05015625 -7.25171875 6.7253125 -7.9609375 6.390625 C-9.64205219 5.59676528 -11.32122921 4.79880442 -13 4 C-12.34 3.01 -11.68 2.02 -11 1 C-6.76570244 2.31061591 -2.92592596 3.94356259 1 6 C0.67 4.02 0.34 2.04 0 0 Z " fill="#EAEAEA" transform="translate(41,50)"/>
<path d="M0 0 C5.15369664 3.89061214 6.38311898 8.19606758 7.875 14.1875 C8.21144531 15.41629883 8.21144531 15.41629883 8.5546875 16.66992188 C10.14532092 22.70935815 10.14532092 22.70935815 9 25 C8.01 24.67 7.02 24.34 6 24 C5.15625 22.15820312 5.15625 22.15820312 4.5 19.78125 C4.2525 18.93175781 4.005 18.08226563 3.75 17.20703125 C3.25 15.40234375 2.75 13.59765625 2.25 11.79296875 C2.0025 10.94347656 1.755 10.09398437 1.5 9.21875 C1.2834375 8.43435547 1.066875 7.64996094 0.84375 6.84179688 C0.5653125 6.23400391 0.286875 5.62621094 0 5 C-2.75078884 4.08307039 -4.35948913 3.89113917 -7.1875 3.9375 C-8.445625 3.958125 -9.70375 3.97875 -11 4 C-10.67 3.01 -10.34 2.02 -10 1 C-6.84203893 -0.57898053 -3.39329364 -0.81928171 0 0 Z " fill="#121212" transform="translate(102,46)"/>
<path d="M0 0 C1.65 0 3.3 0 5 0 C5.14546783 3.24952748 5.2341168 6.49821713 5.3125 9.75 C5.35439453 10.67039062 5.39628906 11.59078125 5.43945312 12.5390625 C5.45556641 13.42851563 5.47167969 14.31796875 5.48828125 15.234375 C5.51446533 16.05131836 5.54064941 16.86826172 5.56762695 17.70996094 C5 20 5 20 0 24 C0 16.08 0 8.16 0 0 Z " fill="#010101" transform="translate(112,97)"/>
<path d="M0 0 C1.65 0 3.3 0 5 0 C5 7.59 5 15.18 5 23 C1 21 1 21 0 20 C-0.08669432 18.5112814 -0.10703494 17.018555 -0.09765625 15.52734375 C-0.09443359 14.62822266 -0.09121094 13.72910156 -0.08789062 12.80273438 C-0.07951172 11.85720703 -0.07113281 10.91167969 -0.0625 9.9375 C-0.05798828 8.98810547 -0.05347656 8.03871094 -0.04882812 7.06054688 C-0.0370011 4.70696935 -0.02052025 2.35351523 0 0 Z " fill="#040404" transform="translate(77,97)"/>
<path d="M0 0 C4.36126577 3.45893492 5.97261925 7.66284406 7 13 C6.95351665 15.81224274 6.55511234 18.22443831 6 21 C1.16272546 16.29002216 -1.18526063 13.62846028 -1.625 6.8125 C-1.69976562 5.72582031 -1.77453125 4.63914063 -1.8515625 3.51953125 C-1.90054688 2.68808594 -1.94953125 1.85664063 -2 1 C-1.34 0.67 -0.68 0.34 0 0 Z " fill="#0D0D0D" transform="translate(106,144)"/>
<path d="M0 0 C-1.17975052 3.67033494 -3.43732162 5.49566558 -6.78125 7.31640625 C-11.13407249 8.65750473 -15.58299324 7.73483657 -20 7 C-19.39453125 4.58203125 -19.39453125 4.58203125 -18 2 C-15.13671875 1.07421875 -15.13671875 1.07421875 -11.6875 0.6875 C-9.99173828 0.47673828 -9.99173828 0.47673828 -8.26171875 0.26171875 C-5.48575504 0.03897675 -2.78225988 -0.05742 0 0 Z " fill="#121212" transform="translate(160,79)"/>
<path d="M0 0 C2.94196006 0.20092897 5.87497474 0.4343037 8.8125 0.6875 C9.64587891 0.74099609 10.47925781 0.79449219 11.33789062 0.84960938 C13.66629594 1.06468296 15.7655064 1.30704198 18 2 C20.07421875 4.58203125 20.07421875 4.58203125 21 7 C15.28354968 8.06132625 10.56856298 8.91557292 5.4375 5.75 C2.87882751 3.94137496 1.79258702 2.68888053 0 0 Z " fill="#0B0B0B" transform="translate(34,79)"/>
<path d="M0 0 C2.31 0 4.62 0 7 0 C7.99 2.31 8.98 4.62 10 7 C8.68 7.33 7.36 7.66 6 8 C5.67 6.68 5.34 5.36 5 4 C4.67 5.32 4.34 6.64 4 8 C3.34 8 2.68 8 2 8 C1.67 7.01 1.34 6.02 1 5 C0.67 5.99 0.34 6.98 0 8 C-0.99 7.67 -1.98 7.34 -3 7 C-2.01 4.69 -1.02 2.38 0 0 Z " fill="#EDEDED" transform="translate(81,131)"/>
<path d="M0 0 C1.670625 0.061875 1.670625 0.061875 3.375 0.125 C5.13962683 3.21309695 5.375 4.35812136 5.375 8.125 C4.385 8.125 3.395 8.125 2.375 8.125 C2.045 6.805 1.715 5.485 1.375 4.125 C1.045 5.445 0.715 6.765 0.375 8.125 C-0.285 8.125 -0.945 8.125 -1.625 8.125 C-1.955 7.135 -2.285 6.145 -2.625 5.125 C-2.955 6.115 -3.285 7.105 -3.625 8.125 C-4.285 8.125 -4.945 8.125 -5.625 8.125 C-5.75 5.25 -5.75 5.25 -5.625 2.125 C-3.625 0.125 -3.625 0.125 0 0 Z " fill="#F1F1F1" transform="translate(110.625,130.875)"/>
<path d="M0 0 C0.66 1.32 1.32 2.64 2 4 C-1.44210849 5.72105424 -5.23633647 5.51474617 -9 5 C-11.5625 3 -11.5625 3 -13 1 C-8.60563789 0.14256349 -4.47427924 -0.08948558 0 0 Z " fill="#1C1C1C" transform="translate(57,89)"/>
<path d="M0 0 C4.29 0.33 8.58 0.66 13 1 C9.5144624 4.4855376 8.28542949 4.95489721 3.4375 5.125 C0 5 0 5 -2 4 C-1.34 2.68 -0.68 1.36 0 0 Z " fill="#030303" transform="translate(138,89)"/>
<path d="M0 0 C1.32 0 2.64 0 4 0 C4.67154933 1.28913487 5.33708859 2.58140204 6 3.875 C6.37125 4.59429687 6.7425 5.31359375 7.125 6.0546875 C8 8 8 8 8 10 C6.25 9.9375 6.25 9.9375 4 9 C1.99159505 6.29950956 0 3.44873267 0 0 Z " fill="#DDDDDD" transform="translate(107,143)"/>
<path d="M0 0 C0.99 0 1.98 0 3 0 C2.67 3.63 2.34 7.26 2 11 C1.01 10.67 0.02 10.34 -1 10 C-1.125 2.25 -1.125 2.25 0 0 Z " fill="#EBEBEB" transform="translate(91,144)"/>
<path d="M0 0 C2.66666667 0 5.33333333 0 8 0 C8 1.65 8 3.3 8 5 C6.68 5.33 5.36 5.66 4 6 C4 4.68 4 3.36 4 2 C3.34 2 2.68 2 2 2 C1.67 3.32 1.34 4.64 1 6 C0.67 4.02 0.34 2.04 0 0 Z " fill="#0D0D0D" transform="translate(148,154)"/>
<path d="M0 0 C0.99 0.33 1.98 0.66 3 1 C3 1.66 3 2.32 3 3 C0.1875 4.5625 0.1875 4.5625 -3 6 C-3.99 5.67 -4.98 5.34 -6 5 C-2.25 1.125 -2.25 1.125 0 0 Z " fill="#F6F6F6" transform="translate(163,51)"/>
<path d="M0 0 C-0.33 2.97 -0.66 5.94 -1 9 C-1.99 8.34 -2.98 7.68 -4 7 C-4.375 4.5 -4.375 4.5 -4 2 C-1 0 -1 0 0 0 Z " fill="#0E0E0E" transform="translate(89,62)"/>
<path d="M0 0 C0.66 0 1.32 0 2 0 C2.66 2.64 3.32 5.28 4 8 C2.68 7.67 1.36 7.34 0 7 C-0.38133299 5.0085944 -0.71325582 3.00720923 -1 1 C-0.67 0.67 -0.34 0.34 0 0 Z " fill="#181818" transform="translate(108,63)"/>
<path d="M0 0 C1.65 0.99 3.3 1.98 5 3 C4.67 4.65 4.34 6.3 4 8 C3.01 8.33 2.02 8.66 1 9 C0.67 6.03 0.34 3.06 0 0 Z " fill="#F9F9F9" transform="translate(48,59)"/>
<path d="M0 0 C0.66 0.33 1.32 0.66 2 1 C2 1.99 2 2.98 2 4 C-1 6 -1 6 -4 6 C-2.25 1.125 -2.25 1.125 0 0 Z " fill="#ECECEC" transform="translate(158,42)"/>
<path d="M0 0 C0 0.99 0 1.98 0 3 C-3.3 3 -6.6 3 -10 3 C-6.1865669 0.45771127 -4.5252563 -0.11908569 0 0 Z " fill="#C5C5C5" transform="translate(86,82)"/>
<path d="M0 0 C1.32 0.33 2.64 0.66 4 1 C4 3.31 4 5.62 4 8 C1.10067643 5.60490662 0.49831724 3.68754757 0 0 Z " fill="#E2E2E2" transform="translate(100,143)"/>
<path d="M0 0 C0.66 0.33 1.32 0.66 2 1 C2.1875 3.875 2.1875 3.875 2 7 C1.01 7.66 0.02 8.32 -1 9 C-1 5.88772805 -0.54372951 3.05847848 0 0 Z " fill="#101010" transform="translate(158,135)"/>
<path d="M0 0 C-0.33 0.99 -0.66 1.98 -1 3 C-3.31 3.33 -5.62 3.66 -8 4 C-7.67 3.01 -7.34 2.02 -7 1 C-4.53721199 -0.231394 -2.7204945 -0.07159196 0 0 Z " fill="#010101" transform="translate(99,46)"/>
<path d="M0 0 C1.32 0.33 2.64 0.66 4 1 C4.33 2.32 4.66 3.64 5 5 C4.01 5.33 3.02 5.66 2 6 C1.34 4.02 0.68 2.04 0 0 Z " fill="#161616" transform="translate(113,129)"/>
<path d="M0 0 C2.31 0 4.62 0 7 0 C7 0.33 7 0.66 7 1 C5.35 1.33 3.7 1.66 2 2 C2 2.99 2 3.98 2 5 C0.68 4.67 -0.64 4.34 -2 4 C-1.34 2.68 -0.68 1.36 0 0 Z " fill="#474747" transform="translate(138,89)"/>
<path d="M0 0 C0.625 2.375 0.625 2.375 1 5 C0.34 5.66 -0.32 6.32 -1 7 C-1.99 5.02 -2.98 3.04 -4 1 C-2 0 -2 0 0 0 Z " fill="#F1F1F1" transform="translate(150,40)"/>
</svg>
